<svg class="icon icon-video" xmlns="http://www.w3.org/2000/svg" viewBox="0 0 403.19 403.18"><defs><style>.cls-1,.cls-2{stroke:#000;stroke-miterlimit:10;}.cls-1{stroke-width:10px;}.cls-2{stroke-width:2px;}</style></defs><path class="cls-1" d="M49.15,5.83c-107.33.7-196.08-87.3-196.78-194.91-.71-108.1,85.09-195.59,191.46-198.2C156.28-390,245-299.89,245.55-192.41,246.16-82.74,159.08,5.11,49.15,5.83Zm187.18-197C236.77-294.06,152.68-378,49.14-378c-101.84,0-185.6,83.25-186,184.87C-137.19-88.74-54.9-5.47,49.17-4.93,152.11-4.4,235.9-87.77,236.33-191.17Z" transform="translate(152.64 392.35)"/><path class="cls-2" d="M-7.54-186.7q0-35.4,0-70.8c0-4.31.24-8.63.54-12.93.33-4.62,4.13-7.58,8.65-6.47a25,25,0,0,1,7.21,3.2q60.06,38.28,120,76.71a23,23,0,0,1,5,4.07c4.34,5,3.92,10.21-1.36,14.19-4.1,3.08-8.57,5.7-12.9,8.47Q65.28-135.5,10.92-100.8c-4.16,2.66-8.44,6.29-13.68,3.33s-4.6-8.62-4.64-13.45c-.19-25.26-.09-50.52-.09-75.78ZM8.89-254.83v136.46l106.76-68.22Z" transform="translate(152.64 392.35)"/></svg>