<?xml version="1.0" encoding="utf-8"?>
<!-- Generator: Adobe Illustrator 24.2.1, SVG Export Plug-In . SVG Version: 6.00 Build 0)  -->
<svg version="1.1" id="Layer_1" xmlns="http://www.w3.org/2000/svg" xmlns:xlink="http://www.w3.org/1999/xlink" x="0px" y="0px"
	 viewBox="0 0 254.3 369.8" style="enable-background:new 0 0 254.3 369.8;" xml:space="preserve">
<style type="text/css">
	.st0{fill:#2C5234;}
	.st1{fill-rule:evenodd;clip-rule:evenodd;fill:#FFFFFF;}
</style>
<path class="st0" d="M236.6,63.3C214.2,24.6,174.3,0.9,130,0c-1.9,0-3.8,0-5.7,0C80,0.9,40.1,24.6,17.7,63.3
	C-5.3,102.5-5.9,150.8,16,190.5l91.7,167.8l0.1,0.2c6.1,10.7,19.7,14.4,30.4,8.3c3.4-2,6.3-4.8,8.3-8.3c0-0.1,0.1-0.1,0.1-0.2
	l91.7-167.8C260.2,150.8,259.6,102.5,236.6,63.3L236.6,63.3z"/>
<path class="st1" d="M190.1,147.3c-0.3,2.5-2.5,4-7.7,4.4c-55.5,4-55.9,7.3-111.3,11.3c-5.2,0.4-12.9-3.6-12.6-6.2
	c0.7-6.1,1.2-6.1,1.9-12.2c0.3-2.5,8.3-5.3,13.4-5.7c55.5-4,55.3-2.3,110.8-6.3c5.2-0.4,10.4-0.3,10.1,2.2
	C193.7,141,190.8,141.2,190.1,147.3z"/>
<path class="st1" d="M74.9,103.5c0.4,1.7,2.3,2.5,6.6,2.4c45.3-1.2,45.9,0.9,91.1-0.3c4.2-0.1,10.2-3.4,9.8-5.1
	c-1-4.1-1.4-4.1-2.4-8.1c-0.4-1.7-7.1-3-11.4-2.9c-45.3,1.2-45,2.4-90.3,3.6c-4.2,0.1-8.4,0.6-8,2.2C71.6,99.5,73.9,99.4,74.9,103.5
	z"/>
<path class="st1" d="M144.2,163.4c2.9-2.1,19.3-8.2,46.1-5c4.9,0.6,6.4,4,7.2,8.4c2.1,10.8-8.5,10-6.4,20.8c0.9,4.4-3.4,6.9-5.6,6.8
	c-23-0.9-13.2-1.8-36.2-2.7c-2.1-0.1-6.2-1.3-7-5.7C140.4,175.2,142.4,164.7,144.2,163.4z"/>
<path class="st1" d="M59.5,187.2c-0.5,3.2,0.8,4.9,3,4.9c23.5,0,15.8,1.9,39.3,1.9c2.2,0,6.4-3.6,6.9-6.9c1.2-7.8,4.1-7.8,5.3-15.6
	c0.5-3.2-2.3-6.1-4.5-6.1c-23.5,0-23.9,2.2-47.4,2.2c-2.2,0-6.2,0.7-6.7,4C54.3,179.5,60.8,179.5,59.5,187.2z"/>
<path class="st1" d="M96.6,127c-0.5,2.4,1,3.6,3.5,3.5c26.7-0.5,17.9,1.1,44.6,0.5c2.5-0.1,7.2-2.8,7.7-5.2
	c1.3-5.7,4.5-5.8,5.8-11.5c0.5-2.4-2.7-4.4-5.2-4.3c-26.7,0.5-27,2.2-53.7,2.7c-2.5,0-7,0.7-7.5,3C90.5,121.5,97.9,121.2,96.6,127z"
	/>
<path class="st1" d="M108.8,76c0.3-1.9,3-3.9,10.9-6c5.9-1.5,12-1.6,17.9-0.1c5.2,1.2,5.2,4,5.1,5.6c-0.3,4.1-0.8,3.9-1.5,7.9
	c-0.5,1.7-1.9,2.9-3.6,3.2c-13.1,0.3-12.9-0.8-25.9-0.5c-1.3,0.2-2.6-0.6-3-1.9C108.1,82,108,79.9,108.8,76z"/>
<path class="st1" d="M127.1,42.8c-38,0-72,23.8-85,59.5h-3C50.6,53.7,99.3,23.6,148,35.1c33.3,7.9,59.4,33.9,67.3,67.3h-3
	C199.2,66.6,165.2,42.8,127.1,42.8z"/>
<path class="st1" d="M199.4,196.1c-2.8,0-5-2.2-5-5s2.2-5,5-5s5,2.2,5,5C204.3,193.9,202.1,196.1,199.4,196.1z M199.4,186.8
	c-2.3,0-4.2,1.9-4.2,4.2c0,2.3,1.9,4.2,4.2,4.2c2.3,0,4.2-1.9,4.2-4.2C203.6,188.7,201.7,186.8,199.4,186.8z M200.7,194l-1.2-2.6
	h-1.1v2.6h-0.8v-5.9h1.8c1.1,0,2,0.3,2,1.6c0.1,0.7-0.4,1.4-1.1,1.6l1.3,2.8H200.7z M199.4,188.8h-0.9v2h0.9c0.9,0,1.3-0.2,1.3-1
	C200.6,188.8,200.2,188.8,199.4,188.8z"/>
</svg>
