<svg id="Layer_1" data-name="Layer 1" xmlns="http://www.w3.org/2000/svg" viewBox="0 0 254.27 369.78"><defs><style>.cls-1{fill:#010101;}.cls-2{fill:#fff;fill-rule:evenodd;}</style></defs><path class="cls-1" d="M411.86,316.08c-22.45-38.73-62.31-62.39-106.63-63.29-1.9,0-3.8,0-5.69,0-44.33.9-84.19,24.56-106.64,63.29a128.75,128.75,0,0,0-1.67,127.2l91.69,167.84.13.22a22.28,22.28,0,0,0,38.66,0,2.53,2.53,0,0,0,.13-.22l91.7-167.84a128.75,128.75,0,0,0-1.68-127.2Z" transform="translate(-175.24 -252.76)"/><path class="cls-2" d="M365.38,400.07c-.27,2.52-2.51,4-7.68,4.41-55.47,4-55.86,7.26-111.33,11.26-5.18.37-12.88-3.64-12.6-6.16.69-6.1,1.18-6.13,1.86-12.23.28-2.51,8.28-5.3,13.45-5.68,55.47-4,55.28-2.27,110.75-6.26,5.17-.37,10.36-.27,10.08,2.23C368.91,393.77,366.07,394,365.38,400.07Z" transform="translate(-175.24 -252.76)"/><path class="cls-2" d="M250.15,356.27c.42,1.68,2.34,2.55,6.57,2.44,45.3-1.25,45.86.94,91.15-.29,4.23-.12,10.17-3.38,9.75-5.06-1-4.08-1.42-4.06-2.43-8.14-.42-1.68-7.12-3-11.35-2.89-45.29,1.24-45,2.39-90.3,3.63-4.23.12-8.42.56-8,2.23C246.81,352.26,249.14,352.2,250.15,356.27Z" transform="translate(-175.24 -252.76)"/><path class="cls-2" d="M319.41,416.21c2.88-2.08,19.31-8.18,46.14-5,4.91.57,6.38,4,7.23,8.43,2.06,10.8-8.49,10-6.42,20.81.85,4.44-3.43,6.87-5.57,6.79-23-.93-13.22-1.77-36.25-2.69-2.15-.09-6.16-1.27-7-5.72C315.61,428,317.66,417.47,319.41,416.21Z" transform="translate(-175.24 -252.76)"/><path class="cls-2" d="M234.74,440c-.51,3.21.81,4.91,3,4.91,23.51,0,15.76,1.94,39.27,1.94,2.19,0,6.36-3.64,6.87-6.85,1.23-7.79,4.08-7.79,5.3-15.59.5-3.2-2.33-6.07-4.52-6.07-23.5,0-23.86,2.2-47.37,2.2-2.19,0-6.19.74-6.7,4C229.5,432.28,236,432.22,234.74,440Z" transform="translate(-175.24 -252.76)"/><path class="cls-2" d="M271.83,379.75c-.53,2.36,1,3.57,3.48,3.52,26.67-.53,17.9,1.06,44.57.53,2.49-.06,7.17-2.81,7.7-5.17,1.27-5.73,4.5-5.79,5.78-11.52.53-2.35-2.73-4.39-5.22-4.34-26.66.54-27,2.16-53.7,2.69-2.48.05-7,.68-7.54,3C265.78,374.22,273.1,374,271.83,379.75Z" transform="translate(-175.24 -252.76)"/><path class="cls-2" d="M284,328.76c.33-1.94,3-3.89,10.91-6a36.8,36.8,0,0,1,17.93-.15c5.24,1.25,5.23,3.95,5.12,5.58-.3,4.07-.8,3.94-1.47,7.88a4.52,4.52,0,0,1-3.57,3.17c-13.08.33-12.88-.79-25.94-.47a2.75,2.75,0,0,1-3-1.92C283.3,334.75,283.27,332.71,284,328.76Z" transform="translate(-175.24 -252.76)"/><path class="cls-2" d="M302.38,295.58a90.46,90.46,0,0,0-85,59.5h-3a90.46,90.46,0,0,1,176.08,0h-3A90.48,90.48,0,0,0,302.38,295.58Z" transform="translate(-175.24 -252.76)"/><path class="cls-2" d="M374.61,448.87a5,5,0,1,1,5-5A5.05,5.05,0,0,1,374.61,448.87Zm0-9.27a4.23,4.23,0,0,0,0,8.46,4.23,4.23,0,0,0,0-8.46Zm1.33,7.2-1.17-2.63h-1.09v2.63h-.82v-5.94h1.78c1.13,0,2,.32,2,1.62a1.43,1.43,0,0,1-1.07,1.56l1.27,2.76Zm-1.33-5.29h-.93v2h.9c.94,0,1.26-.25,1.26-1C375.84,441.57,375.45,441.51,374.61,441.51Z" transform="translate(-175.24 -252.76)"/></svg>